# xmcd
#
# Track frame offsets: 
#        182
#        10902
#        22510
#        39312
#        56155
#        71885
#        84267
#        99782
#        110900
#        127035
#        136990
#
# Disc length: 2014 seconds
#
# Revision: 3
# Processed by: cddbd v1.5PL3 Copyright (c) Steve Scherf et al.
# Submitted via: ExactAudioCopy v0.95a3
#
DISCID=8907dc0b
DTITLE=Blake and Brian - Blake and Brian
DYEAR=1997
DGENRE=Country
TTITLE0=If Guitars Were Guns
TTITLE1=Why, Why, Why,
TTITLE2=Saving My Love
TTITLE3=The Wish
TTITLE4=There Is No End
TTITLE5=Straight To You
TTITLE6=Another Perfect Day
TTITLE7=Shut Up Heart
TTITLE8=Confederate Rose
TTITLE9=Don't Apologize For Who You Are
TTITLE10=My Only Claim To Fame
EXTD=
EXTT0=
EXTT1=
EXTT2=
EXTT3=
EXTT4=
EXTT5=
EXTT6=
EXTT7=
EXTT8=
EXTT9=
EXTT10=
PLAYORDER=
